# xmcd CD Database Entry
#
# Track frame offsets:
# 182
# 18027
# 36055
# 51417
# 68010
# 82877
# 98022
# 114192
# 129372
# 143440
#
# Disc length: 2133 seconds
#
# Revision: 2
# Processed by: cddbd v1.4PL0 Copyright (c) Steve Scherf et al.
# Submitted via: tcd 2.0b
#
DISCID=6c08530a
DTITLE=Brand New Heavies - Heavy Rhyme Experience: vol. 1
DYEAR=1900
DGENRE=
TTITLE0=bonafied funk (feat main source)
TTITLE1=it's gettin hectic (feat gang starr)
TTITLE2=who makes the loot (feat grand puba)
TTITLE3=wake me when i'm dead (feat masta ace)
TTITLE4=jump n' move (feat jamalski)
TTITLE5=death threat (feat kool g. rap)
TTITLE6=state of yo (feat black sheep)
TTITLE7=do what I gotta do (feat ed o.g.)
TTITLE8=whatgabouthat (feat tiger)
TTITLE9=soul flower (feat the pharcyde)
EXTD=Except there never was a volume 2...\nAnd anyway why are ther
EXTD=e no\ncategories for funk or hiphop?\n
EXTT0=
EXTT1=
EXTT2=
EXTT3=
EXTT4=
EXTT5=
EXTT6=
EXTT7=
EXTT8=
EXTT9=
PLAYORDER=
